<mxfile host="app.diagrams.net" modified="2023-05-15T00:46:32.828Z" agent="Mozilla/5.0 (X11; Linux x86_64; rv:109.0) Gecko/20100101 Firefox/113.0" version="21.3.0" etag="L6FgEjUuf0P7yjsCM1Vs" type="github">
  <diagram name="Page-1" id="-OSFVKCTcVrKlnSCPOcu">
    <mxGraphModel>
      <root>
        <mxCell id="0" />
        <mxCell id="1" parent="0" />
      </root>
    </mxGraphModel>
  </diagram>
</mxfile>
